<svg width="17" height="17" viewBox="0 0 17 17" fill="none" xmlns="http://www.w3.org/2000/svg">
<path d="M11.7284 3.50667L13.4934 5.27084M12.8634 1.95251L8.09091 6.72501C7.84432 6.97126 7.67614 7.28499 7.60758 7.62667L7.16675 9.83334L9.37341 9.39167C9.71508 9.32334 10.0284 9.15584 10.2751 8.90917L15.0476 4.13667C15.191 3.99326 15.3048 3.823 15.3824 3.63562C15.46 3.44824 15.4999 3.24741 15.4999 3.04459C15.4999 2.84177 15.46 2.64094 15.3824 2.45356C15.3048 2.26618 15.191 2.09592 15.0476 1.95251C14.9042 1.80909 14.7339 1.69533 14.5465 1.61772C14.3591 1.5401 14.1583 1.50015 13.9555 1.50015C13.7527 1.50015 13.5518 1.5401 13.3645 1.61772C13.1771 1.69533 13.0068 1.80909 12.8634 1.95251V1.95251Z" stroke="#5F8BFB" stroke-width="1.66667" stroke-linecap="round" stroke-linejoin="round"/>
<path d="M13.8334 11.5V14C13.8334 14.442 13.6578 14.866 13.3452 15.1785C13.0327 15.4911 12.6087 15.6667 12.1667 15.6667H3.00004C2.55801 15.6667 2.13409 15.4911 1.82153 15.1785C1.50897 14.866 1.33337 14.442 1.33337 14V4.83335C1.33337 4.39133 1.50897 3.9674 1.82153 3.65484C2.13409 3.34228 2.55801 3.16669 3.00004 3.16669H5.50004" stroke="#5F8BFB" stroke-width="1.66667" stroke-linecap="round" stroke-linejoin="round"/>
</svg>
